# xmcd
#
# Track frame offsets:
# 150
# 19912
# 39656
# 59941
# 89575
# 108841
# 129982
# 150355
# 180446
# 205286
# 230653
# 236303
# 260708
# 285871
# 306969
#
# Disc length: 4669 seconds
#
#
# Revision: 1
# Processed by: cddbd v1.5.2PL0 Copyright (c) Steve Scherf et al.
# Submitted via: FreeRIP 2.90 
#
DISCID=cb123b0f
DTITLE=Sniper - Trait pour trait
DYEAR=2006
DGENRE=Rap
TTITLE0=S.N.I
TTITLE1=Dans mon monde
TTITLE2=Trait pour trait
TTITLE3=Eldorado feat Faada Freddy Daara j
TTITLE4=Zamalia
TTITLE5=Génération Tanguy
TTITLE6=Donne tout
TTITLE7=La France (itinéraire d'une polemique) avec cici et Oliver Cachin
TTITLE8=Hommes de loi
TTITLE9=Il était une fois
TTITLE10=Radio
TTITLE11=Retour aux sources
TTITLE12=Elle
TTITLE13=Brûle avec Joey Starr
TTITLE14=Fallait que je te dise
EXTD=
EXTT0=
EXTT1=
EXTT2=
EXTT3=
EXTT4=
EXTT5=
EXTT6=
EXTT7=
EXTT8=
EXTT9=
EXTT10=
EXTT11=
EXTT12=
EXTT13=
EXTT14=
PLAYORDER=
